<mxfile host="app.diagrams.net" modified="2023-03-22T14:11:27.794Z" agent="5.0 (Macintosh; Intel Mac OS X 10_15_7) AppleWebKit/537.36 (KHTML, like Gecko) Chrome/105.0.0.0 Safari/537.36" etag="u5OqTRfbKYFPgkXT7b9T" version="20.8.20" type="github">
  <diagram name="Page-1" id="eXWcDOOJcHlk-pv2xvh-">
    <mxGraphModel dx="1546" dy="786" grid="1" gridSize="10" guides="1" tooltips="1" connect="1" arrows="1" fold="1" page="1" pageScale="1" pageWidth="827" pageHeight="1169" math="0" shadow="0">
      <root>
        <mxCell id="0" />
        <mxCell id="1" parent="0" />
      </root>
    </mxGraphModel>
  </diagram>
</mxfile>
